<svg xmlns="http://www.w3.org/2000/svg" viewBox="0 0 458.2303 152.0000" width="458.2303" height="152.0000" role="img" aria-labelledby="brand-title"><title id="brand-title">haetae</title><g transform="translate(12 12)"><g fill="#e7ebee" transform="translate(3.2821 0) scale(0.298368)"><path d="M0 0 C1.06 -0.03 2.12 -0.05 3.21 -0.08 C6.06 0.25 6.06 0.25 7.91 1.46 C10.9 6.1 9.39 12.59 8.37 17.7 C4.46 32.58 -3.11 43.82 -14.08 54.37 C-15.94 56.25 -15.94 56.25 -16.94 58.25 C-16.52 58.38 -16.52 58.38 -14.44 59.01 C-10.44 60.43 -6.73 62.17 -2.94 64.06 C-2.59 64.23 -2.59 64.23 -0.86 65.06 C6.78 68.86 11.51 73.45 15.88 80.69 C19.86 86.91 23.37 90.89 30.06 94.25 C32.03 95.28 33.98 96.31 35.94 97.35 C37.29 98.06 38.65 98.76 40.01 99.45 C43.29 101.13 44.97 102.12 47.06 105.25 C48.31 111.88 48.28 118.49 48.3 125.21 C48.31 127.25 48.34 129.28 48.38 131.31 C48.43 144.16 48.43 144.16 45.06 149.25 C40.57 152.87 37.59 153.74 31.86 153.7 C31.17 153.7 30.48 153.71 29.76 153.71 C27.49 153.7 25.22 153.67 22.95 153.64 C21.36 153.63 19.78 153.63 18.2 153.62 C14.04 153.61 9.89 153.57 5.74 153.52 C1.49 153.48 -2.75 153.47 -6.99 153.45 C-15.31 153.4 -23.62 153.33 -31.94 153.25 C-30.82 160.39 -29.22 167 -26.71 173.77 C-26.39 174.64 -26.08 175.51 -25.76 176.4 C-24.76 179.14 -23.76 181.89 -22.75 184.62 C-20.12 191.82 -17.51 199.03 -14.94 206.25 C-14.6 207.18 -14.27 208.11 -13.93 209.07 C-12.94 211.85 -11.97 214.63 -11.01 217.41 C-10.72 218.24 -10.42 219.07 -10.12 219.92 C-5.86 232.44 -6.13 243.85 -11.88 255.81 C-15.2 262.28 -19.03 268.47 -22.94 274.59 C-24.32 276.79 -25.63 279.01 -26.94 281.25 C-27.38 281.93 -27.81 282.6 -28.27 283.3 C-33.74 293.09 -32.67 304.1 -32.64 314.98 C-32.66 317.18 -32.67 319.39 -32.69 321.59 C-32.73 327.36 -32.74 333.13 -32.74 338.9 C-32.75 344.8 -32.79 350.7 -32.83 356.6 C-32.89 368.15 -32.92 379.7 -32.94 391.25 C-31.85 391.38 -30.75 391.51 -29.63 391.65 C-23.27 392.68 -19.22 396.4 -15.26 401.27 C-11.34 407.14 -9.86 414.27 -10.94 421.25 C-11.6 422.24 -12.26 423.23 -12.94 424.25 C-15.9 424.62 -15.9 424.62 -19.74 424.62 C-20.44 424.63 -21.14 424.63 -21.86 424.63 C-24.18 424.64 -26.5 424.63 -28.81 424.61 C-30.42 424.61 -32.03 424.61 -33.63 424.61 C-37 424.61 -40.37 424.6 -43.74 424.59 C-48.06 424.56 -52.39 424.56 -56.71 424.57 C-60.03 424.57 -63.35 424.57 -66.67 424.56 C-68.26 424.55 -69.86 424.55 -71.45 424.55 C-73.68 424.55 -75.91 424.54 -78.13 424.52 C-79.4 424.52 -80.67 424.52 -81.98 424.51 C-84.94 424.25 -84.94 424.25 -86.94 422.25 C-87.2 420 -87.2 420 -87.22 417.15 C-87.22 416.61 -87.22 416.61 -87.25 413.88 C-87.25 412.69 -87.25 411.5 -87.26 410.27 C-87.27 409.02 -87.28 407.78 -87.29 406.49 C-87.31 403.06 -87.33 399.63 -87.34 396.2 C-87.36 392.62 -87.38 389.04 -87.41 385.45 C-87.46 378.67 -87.49 371.88 -87.53 365.1 C-87.57 357.37 -87.61 349.65 -87.66 341.92 C-87.77 326.03 -87.86 310.14 -87.94 294.25 C-88.33 294.64 -88.72 295.03 -89.12 295.43 C-116.43 322.74 -116.43 322.74 -118.26 324.57 C-119.75 326.07 -121.25 327.57 -122.74 329.06 C-125.17 331.48 -127.69 333.78 -130.25 336.06 C-131.13 336.85 -132.02 337.64 -132.93 338.46 C-133.59 339.05 -134.25 339.64 -134.94 340.25 C-136.82 336.9 -137.65 333.6 -138.56 329.88 C-143.11 313.81 -152.65 301.4 -167.09 292.78 C-186.35 282.43 -207 280.2 -227.95 286.28 C-230.94 287.25 -230.94 287.25 -232.94 288.25 C-232.66 288.25 -232.66 288.25 -231.26 288.28 C-207.72 288.78 -186.26 293.26 -168.33 309.63 C-156.69 321.77 -151.66 337.61 -151.94 354.25 C-153.19 368.18 -158.07 379.8 -165.94 391.25 C-165.05 391.23 -164.15 391.22 -163.23 391.2 C-159.89 391.15 -156.54 391.11 -153.19 391.09 C-151.75 391.07 -150.3 391.05 -148.86 391.02 C-136.97 390.81 -127.86 391.37 -118.89 399.95 C-113.77 405.98 -112.48 412.47 -112.6 420.22 C-112.94 422.25 -112.94 422.25 -114.94 424.25 C-117.68 424.46 -120.32 424.54 -123.06 424.54 C-123.91 424.54 -124.76 424.55 -125.63 424.55 C-128.5 424.57 -131.36 424.58 -134.23 424.58 C-136.28 424.6 -138.33 424.61 -140.37 424.62 C-145.96 424.65 -151.54 424.67 -157.13 424.69 C-162.98 424.71 -168.84 424.74 -174.7 424.77 C-184.56 424.81 -194.43 424.85 -204.29 424.88 C-215.64 424.92 -226.98 424.97 -238.33 425.03 C-249.28 425.08 -260.23 425.13 -271.18 425.17 C-275.82 425.19 -280.46 425.21 -285.09 425.23 C-299.04 425.3 -312.99 425.32 -326.94 425.25 C-327.69 425.25 -328.45 425.24 -329.23 425.24 C-333.59 425.23 -337.94 425.16 -342.3 425.07 C-343.28 425.06 -344.26 425.05 -345.27 425.05 C-347.61 424.97 -349.68 424.87 -351.94 424.25 C-354.18 421.67 -354.84 420.22 -355.19 416.85 C-353.14 396.11 -341.31 380.3 -325.69 367.39 C-321.45 364.25 -321.45 364.25 -318.94 364.25 C-318.96 363.45 -318.98 362.65 -319.01 361.82 C-319.86 307.89 -295.5 260.79 -259.79 221.91 C-255.41 217.4 -250.66 213.44 -245.76 209.52 C-243.97 208.08 -242.2 206.61 -240.46 205.1 C-224.8 191.65 -205.83 181.2 -186.84 173.22 C-184.94 172.25 -184.94 172.25 -183.94 170.25 C-183.79 168.31 -183.71 166.37 -183.66 164.42 C-183.62 163.24 -183.58 162.05 -183.55 160.83 C-183.51 159.57 -183.47 158.3 -183.44 157 C-183.35 154.43 -183.26 151.86 -183.18 149.29 C-182.95 142.53 -182.95 142.53 -182.86 139.8 C-181.95 113.06 -169.07 98.03 -150.92 80.27 C-147.36 76.76 -144.03 73.11 -140.76 69.33 C-127.94 54.73 -114.24 40.56 -93.74 39.09 C-90.38 38.91 -87.01 38.78 -83.64 38.65 C-60.77 37.7 -40.48 30.75 -22.9 15.75 C-20.94 14.25 -20.94 14.25 -18.94 14.25 C-18.66 13.69 -18.38 13.12 -18.09 12.54 C-16.64 9.66 -14.74 7.82 -12.44 5.56 C-11.64 4.77 -10.85 3.99 -10.03 3.18 C-6.66 0.08 -4.51 0.07 0 0 Z " transform="translate(356.9375,1.75)"/></g><g fill="#66d5d0"><rect x="93" y="25" width="17" height="5" rx="2.5"/></g></g><g fill="#e7ebee" transform="translate(172 44) scale(0.387879)"><path d="M0 0 C10.23 0 20.46 0 31 0 C31 19.14 31 38.28 31 58 C34.63 55.69 38.26 53.38 42 51 C55.44 45.54 70.38 44.73 84.14 49.75 C96.21 55.04 103.87 62.17 108.99 74.42 C112.03 85.19 112.28 96.04 112.2 107.14 C112.19 108.65 112.19 110.16 112.19 111.66 C112.18 115.58 112.16 119.5 112.14 123.41 C112.11 128.14 112.1 132.87 112.09 137.59 C112.07 144.73 112.03 151.86 112 159 C101.77 159 91.54 159 81 159 C80.97 154.44 80.95 149.87 80.92 145.17 C80.9 142.26 80.87 139.34 80.84 136.43 C80.79 131.82 80.75 127.21 80.73 122.6 C80.71 118.88 80.68 115.16 80.63 111.44 C80.62 110.02 80.61 108.61 80.61 107.2 C80.6 97.79 80.41 87.77 73.69 80.5 C72.8 80 71.91 79.51 71 79 C70.52 78.71 70.52 78.71 68.06 77.25 C61.56 74.69 53.64 74.87 47.05 76.91 C40.34 80.03 36.66 83.6 33.4 90.28 C31.13 96.55 31.52 103.19 31.49 109.78 C31.47 111.2 31.45 112.63 31.43 114.05 C31.39 117.77 31.36 121.5 31.33 125.22 C31.3 129.7 31.24 134.18 31.19 138.65 C31.11 145.44 31.06 152.22 31 159 C20.77 159 10.54 159 0 159 C0 106.53 0 54.06 0 0 Z " transform="translate(2,2)"/><path d="M0 0 C9.9 0 19.8 0 30 0 C30 10.56 30 21.12 30 32 C39.57 32 49.14 32 59 32 C59.81 37.64 60.18 42.73 60.19 48.38 C60.2 49.19 60.21 50.01 60.22 50.86 C60.23 52.91 60.12 54.95 60 57 C57.15 58.42 54.85 58.01 51.68 57.88 C50.42 57.83 49.17 57.78 47.87 57.73 C46.55 57.68 45.23 57.62 43.88 57.56 C42.54 57.51 41.2 57.46 39.86 57.4 C36.57 57.27 33.28 57.14 30 57 C30.07 63.73 30.16 70.45 30.26 77.18 C30.3 79.47 30.32 81.75 30.35 84.04 C30.38 87.33 30.43 90.62 30.49 93.91 C30.49 94.93 30.5 95.95 30.51 97 C30.62 102.4 30.94 106.35 34 111 C37.8 114.44 41.08 115.13 46.11 115.1 C46.6 115.1 46.6 115.1 49.08 115.09 C50.11 115.08 51.13 115.07 52.19 115.06 C53.22 115.06 54.26 115.05 55.33 115.05 C57.88 115.04 60.44 115.02 63 115 C64.02 118.06 64.12 120.12 64.1 123.32 C64.1 123.84 64.1 123.84 64.09 126.44 C64.08 126.98 64.08 126.98 64.06 129.69 C64.06 130.77 64.05 131.85 64.05 132.97 C64.04 135.65 64.02 138.32 64 141 C48.96 144.5 31.46 145.61 17.65 137.64 C9.38 131.87 3.79 124.35 1.4 114.52 C-0.6 103.14 -0.22 91.7 -0.12 80.19 C-0.11 78.03 -0.11 75.87 -0.1 73.72 C-0.08 68.48 -0.04 63.24 0 58 C-2.31 57.84 -2.31 57.84 -14 57 C-14.2 54.15 -14.38 51.29 -14.56 48.44 C-14.62 47.64 -14.67 46.84 -14.73 46.01 C-15.03 41.16 -14.87 36.79 -14 32 C-9.38 32 -4.76 32 0 32 C0 21.44 0 10.88 0 0 Z " transform="translate(386,19)"/><path d="M0 0 C0 -3.3 0 -6.6 0 -10 C9.9 -10 19.8 -10 30 -10 C30 26.3 30 62.6 30 100 C20.1 100 10.2 100 0 100 C0 97.03 0 94.06 0 91 C-0.61 91.39 -1.21 91.77 -1.84 92.17 C-15.63 100.75 -29.45 104.37 -45.62 101.32 C-60.87 96.91 -72.57 88.63 -81 75 C-88.78 60.62 -89.82 43.73 -86 28 C-81.42 13.56 -72.29 1.32 -58.89 -5.94 C-38.87 -16.19 -17.82 -13.37 0 0 Z M-52 26 C-57.37 34.44 -57.89 43.25 -57 53 C-55.28 60.37 -50.27 67.19 -43.95 71.35 C-35.95 75.55 -27.65 76.15 -18.94 73.88 C-11.14 71.28 -4.87 66.31 -1 59 C2.29 50.8 2.43 40.92 -0.5 32.56 C-3.91 25.38 -9.8 19.54 -17.25 16.62 C-30.49 13.63 -42.78 15.68 -52 26 Z " transform="translate(214,61)"/><path d="M0 0 C10.42 8.43 17.53 21.05 19.5 34.26 C20.64 50.98 20.64 50.98 18.5 55.26 C15.98 55.45 13.57 55.51 11.04 55.48 C10.65 55.49 10.65 55.49 8.68 55.49 C6.09 55.48 3.49 55.47 0.9 55.45 C-0.89 55.45 -2.68 55.45 -4.47 55.44 C-9.2 55.44 -13.93 55.42 -18.65 55.4 C-23.47 55.37 -28.29 55.37 -33.11 55.36 C-42.57 55.33 -52.04 55.3 -61.5 55.26 C-60.89 56.86 -60.26 58.45 -59.64 60.05 C-59.3 60.94 -58.95 61.82 -58.59 62.74 C-56.02 68.66 -52.24 71.78 -46.46 74.5 C-38.2 77.7 -28.25 77.25 -19.92 74.46 C-16.02 72.52 -12.87 69.79 -9.63 66.9 C-7.5 65.26 -7.5 65.26 -4.5 65.26 C-1.98 67.3 -1.98 67.3 0.88 70.01 C3.64 72.61 6.34 75.14 9.34 77.46 C10.06 78.06 10.77 78.65 11.5 79.26 C11.62 81.2 11.62 81.2 10.5 83.26 C8.31 85.7 8.31 85.7 5.5 88.26 C4.65 89.06 3.81 89.87 2.94 90.7 C-11.24 102.22 -28.04 103.4 -45.5 102.26 C-49.48 101.75 -52.81 100.83 -56.5 99.26 C-57.61 98.81 -58.73 98.35 -59.88 97.89 C-73.27 91.87 -83.32 82.01 -88.71 68.14 C-94.03 52.71 -94.57 36.18 -88.09 20.95 C-80.51 5.74 -69.18 -4.38 -53.2 -10.02 C-34.26 -15.11 -15.84 -11.04 0 0 Z M-57.91 23.65 C-59.39 26.07 -59.96 27.71 -60.6 30.42 C-60.9 31.69 -61.19 32.95 -61.5 34.26 C-54.4 34.31 -47.3 34.34 -40.19 34.37 C-37.77 34.38 -35.36 34.39 -32.94 34.41 C-29.47 34.43 -26 34.44 -22.54 34.45 C-21.99 34.46 -21.99 34.46 -19.24 34.48 C-18.24 34.48 -17.23 34.48 -16.2 34.48 C-15.32 34.49 -14.43 34.49 -13.52 34.5 C-13.19 34.46 -13.19 34.46 -11.5 34.26 C-10.5 32.26 -10.5 32.26 -11.1 30.27 C-13.27 25.35 -15.33 21.8 -19.5 18.26 C-19.81 17.98 -19.81 17.98 -21.38 16.57 C-33.94 8.81 -48.71 13.32 -57.91 23.65 Z " transform="translate(349.5,60.7421875)"/><path d="M0 0 C0.66 -2.97 1.32 -5.94 2 -9 C11.57 -9 21.14 -9 31 -9 C31.9 16.84 32.09 42.65 32.06 68.5 C32.06 69.3 32.06 70.11 32.06 70.93 C32.05 80.96 32.03 90.98 32 101 C21.77 101 11.54 101 1 101 C0.84 99.68 0.84 99.68 0 93 C-0.98 93.55 -1.96 94.11 -2.96 94.68 C-16.83 102.41 -29.87 105.44 -45.77 102.24 C-48.93 101.31 -51.95 100.25 -55 99 C-55.75 98.7 -56.49 98.4 -57.26 98.09 C-70.29 92.19 -79.88 81.21 -85.03 68.02 C-87.44 60.52 -88.36 54.05 -88.31 46.19 C-88.31 45.21 -88.3 44.24 -88.3 43.23 C-88.19 36.43 -87.67 30.32 -85 24 C-84.82 23.58 -84.82 23.58 -83.93 21.45 C-77.91 8.36 -68.2 -1.42 -54.84 -6.97 C-34.53 -14.35 -17.83 -11.11 0 0 Z M-51 26 C-57.05 33.87 -59.07 42.15 -58 52 C-55.99 60.15 -51.67 67.06 -44.5 71.57 C-35.82 76.09 -27.48 77.37 -17.94 74.88 C-9.34 71.98 -4.63 67.22 -0.13 59.46 C3.21 52.18 3.12 42.78 0.81 35.19 C-2.63 26.44 -7.63 22.23 -16 18 C-28.12 13.96 -42.33 16.61 -51 26 Z " transform="translate(546,60)"/><path d="M0 0 C10.74 9.07 17.09 21.04 19.21 34.93 C19.37 37.81 19.39 40.67 19.39 43.55 C19.41 44.32 19.42 45.08 19.43 45.87 C19.44 49.75 19.41 51.63 17.21 54.93 C14.63 55.22 12.3 55.31 9.73 55.27 C9.34 55.27 9.34 55.27 7.39 55.27 C4.84 55.27 2.28 55.25 -0.27 55.22 C-2.04 55.22 -3.81 55.21 -5.57 55.21 C-10.23 55.2 -14.89 55.17 -19.55 55.14 C-24.3 55.11 -29.06 55.09 -33.81 55.08 C-43.14 55.04 -52.46 54.99 -61.79 54.93 C-61.33 56.38 -60.86 57.83 -60.39 59.27 C-60.12 60.08 -59.86 60.89 -59.59 61.72 C-57.43 67.69 -52.89 71.78 -47.23 74.43 C-38.89 77.29 -29.12 77.21 -20.89 73.98 C-15.44 71.24 -10.65 67.58 -5.79 63.93 C-5.35 64.35 -4.91 64.77 -4.45 65.2 C-2.44 67.09 -0.43 68.98 1.58 70.87 C2.28 71.53 2.98 72.19 3.7 72.87 C4.37 73.49 5.04 74.12 5.73 74.77 C6.35 75.35 6.97 75.93 7.6 76.53 C9.21 77.93 9.21 77.93 11.21 78.93 C10.73 83.22 8.3 85.11 5.21 87.93 C4.36 88.73 3.52 89.54 2.64 90.37 C-11.3 101.68 -28.57 103.31 -45.79 101.93 C-59.22 100.24 -71.5 93.52 -80.73 83.66 C-90.42 70.84 -95.39 54.98 -93.79 38.93 C-91.18 23.3 -84.97 8.32 -71.78 -1.26 C-49.09 -15.86 -22.04 -16.34 0 0 Z M-57.79 21.93 C-60.43 26.06 -61.79 28.96 -61.79 33.93 C-54.69 33.98 -47.59 34.02 -40.49 34.04 C-38.07 34.05 -35.65 34.06 -33.23 34.08 C-29.76 34.1 -26.3 34.12 -22.83 34.12 C-22.28 34.13 -22.28 34.13 -19.53 34.16 C-18.53 34.16 -17.53 34.16 -16.5 34.16 C-15.61 34.16 -14.72 34.17 -13.81 34.17 C-13.48 34.13 -13.48 34.13 -11.79 33.93 C-10.79 31.93 -10.79 31.93 -11.39 29.94 C-13.56 25.02 -15.62 21.48 -19.79 17.93 C-20.1 17.65 -20.1 17.65 -21.67 16.24 C-33.19 9.13 -48.75 12.45 -57.79 21.93 Z " transform="translate(685.79296875,61.0703125)"/></g></svg>
